<?xml version="1.0" encoding="UTF-8" standalone="no"?>
<!-- Generator: visioncortex VTracer 0.6.5 -->

<svg
   version="1.1"
   width="1000"
   height="1000"
   id="svg97"
   sodipodi:docname="CatBraaain.svg"
   inkscape:version="1.4.3 (0d15f75, 2025-12-25)"
   xmlns:inkscape="http://www.inkscape.org/namespaces/inkscape"
   xmlns:sodipodi="http://sodipodi.sourceforge.net/DTD/sodipodi-0.dtd"
   xmlns="http://www.w3.org/2000/svg"
   xmlns:svg="http://www.w3.org/2000/svg">
  <defs
     id="defs97">
    <inkscape:path-effect
       effect="spiro"
       id="path-effect113"
       is_visible="true"
       lpeversion="1" />
    <inkscape:path-effect
       effect="bspline"
       id="path-effect112"
       is_visible="true"
       lpeversion="1.3"
       weight="33.333333"
       steps="2"
       helper_size="0"
       apply_no_weight="true"
       apply_with_weight="true"
       only_selected="false"
       uniform="false" />
    <inkscape:path-effect
       effect="spiro"
       id="path-effect110"
       is_visible="true"
       lpeversion="1" />
    <linearGradient
       id="swatch103"
       inkscape:swatch="solid">
      <stop
         style="stop-color:#000000;stop-opacity:1;"
         offset="0"
         id="stop103" />
    </linearGradient>
    <linearGradient
       id="swatch102"
       inkscape:swatch="solid">
      <stop
         style="stop-color:#000000;stop-opacity:1;"
         offset="0"
         id="stop102" />
    </linearGradient>
    <filter
       inkscape:label="Emergence"
       inkscape:menu="Shadows and Glows"
       inkscape:menu-tooltip="Cut out, add inner shadow and colorize some parts of an image"
       style="color-interpolation-filters:sRGB;"
       id="filter2"
       x="-0.031679999"
       y="-0.031679999"
       width="1.06636"
       height="1.06636">
      <feMorphology
         result="result1"
         in="SourceAlpha"
         operator="dilate"
         radius="3.6"
         id="feMorphology1" />
      <feGaussianBlur
         stdDeviation="3.6"
         in="result1"
         result="result0"
         id="feGaussianBlur1" />
      <feDiffuseLighting
         surfaceScale="-5"
         id="feDiffuseLighting1">
        <feDistantLight
           elevation="45"
           azimuth="225"
           id="feDistantLight1" />
      </feDiffuseLighting>
      <feComposite
         in2="result0"
         operator="in"
         result="result91"
         id="feComposite1" />
      <feComposite
         in="SourceGraphic"
         in2="result91"
         id="feComposite2"
         result="fbSourceGraphic" />
      <feColorMatrix
         result="fbSourceGraphicAlpha"
         in="fbSourceGraphic"
         values="0 0 0 -1 0 0 0 0 -1 0 0 0 0 -1 0 0 0 0 1 0"
         id="feColorMatrix2" />
      <feMorphology
         id="feMorphology2"
         result="result1"
         in="fbSourceGraphicAlpha"
         operator="dilate"
         radius="3.6" />
      <feGaussianBlur
         id="feGaussianBlur2"
         stdDeviation="3.6"
         in="result1"
         result="result0" />
      <feDiffuseLighting
         id="feDiffuseLighting2"
         surfaceScale="-5">
        <feDistantLight
           id="feDistantLight2"
           elevation="45"
           azimuth="225" />
      </feDiffuseLighting>
      <feComposite
         id="feComposite3"
         in2="result0"
         operator="in"
         result="result91" />
      <feComposite
         id="feComposite4"
         in="fbSourceGraphic"
         in2="result91"
         result="fbSourceGraphic" />
      <feColorMatrix
         result="fbSourceGraphicAlpha"
         in="fbSourceGraphic"
         values="0 0 0 -1 0 0 0 0 -1 0 0 0 0 -1 0 0 0 0 1 0"
         id="feColorMatrix4" />
      <feColorMatrix
         id="feColorMatrix5"
         values="0 0 0 0 0 0 0 0 0 0 0 0 0 0 0 0.21 0.72 0.07 0 0 "
         result="result1"
         in="fbSourceGraphic" />
      <feColorMatrix
         id="feColorMatrix6"
         values="1 0 0 0 0 0 1 0 0 0 0 0 1 0 0 0 0 0 2 0 "
         result="result9" />
      <feComposite
         id="feComposite6"
         in2="result9"
         in="fbSourceGraphic"
         operator="in"
         result="result4" />
      <feFlood
         id="feFlood6"
         result="result2"
         flood-color="rgb(0,0,0)" />
      <feComposite
         id="feComposite7"
         in2="result9"
         operator="in"
         result="result10" />
      <feComposite
         id="feComposite8"
         in2="result4"
         operator="atop" />
      <feGaussianBlur
         id="feGaussianBlur8"
         stdDeviation="3"
         result="result8" />
      <feOffset
         id="feOffset8"
         dx="3"
         dy="3"
         result="result3"
         in="result8" />
      <feFlood
         id="feFlood8"
         flood-opacity="1"
         flood-color="rgb(219,173,62)"
         result="result5" />
      <feMerge
         id="feMerge8"
         result="result6">
        <feMergeNode
           id="feMergeNode8"
           in="result5" />
        <feMergeNode
           id="feMergeNode9"
           in="result3" />
        <feMergeNode
           id="feMergeNode10"
           in="result4" />
      </feMerge>
      <feComposite
         id="feComposite10"
         in2="fbSourceGraphic"
         operator="in"
         result="result7" />
    </filter>
  </defs>
  <sodipodi:namedview
     id="namedview97"
     pagecolor="#ffffff"
     bordercolor="#000000"
     borderopacity="0.25"
     inkscape:showpageshadow="false"
     inkscape:pageopacity="0.0"
     inkscape:pagecheckerboard="true"
     inkscape:deskcolor="#d1d1d1"
     showguides="true"
     inkscape:zoom="0.5"
     inkscape:cx="468"
     inkscape:cy="586"
     inkscape:window-width="1920"
     inkscape:window-height="1010"
     inkscape:window-x="-6"
     inkscape:window-y="1073"
     inkscape:window-maximized="1"
     inkscape:current-layer="svg97"
     labelstyle="default"
     showborder="false"
     borderlayer="false"
     inkscape:antialias-rendering="true"
     inkscape:clip-to-page="false" />
  <path
     style="fill:#ffffff;fill-opacity:1"
     id="path10"
     sodipodi:type="arc"
     sodipodi:cx="500"
     sodipodi:cy="500"
     sodipodi:rx="500"
     sodipodi:ry="500"
     sodipodi:start="0"
     sodipodi:end="6.2830165"
     sodipodi:arc-type="arc"
     d="M 1000,500 A 500,500 0 0 1 500.0211,1000 500,500 0 0 1 1.7809915e-6,500.0422 500,500 0 0 1 499.9367,4.0072309e-6 500,500 0 0 1 999.99999,499.9156"
     sodipodi:open="true"
     inkscape:label="background" />
  <path
     d="m 258.08759,631.15522 c 3.276,2.358 6.03,4.698 8.505,7.893 0.387,0.486 0.783,0.963 1.179,1.458 3.888,6.03 3.357,14.175 2.421,21.042 -2.115,8.613 -8.343,14.004 -14.544,19.908 -7.38,7.119 -11.61,14.202 -11.817,24.624 -0.09,13.959 2.223,24.975 11.961,35.568 3.348,3.051 7.02,5.616 10.8,8.1 -0.504,3.735 -2.682,6.246 -4.95,9.108 -0.405,0.522 -0.81,1.044 -1.233,1.584 -10.188,12.861 -21.924,25.49696 -35.217,35.20796 -3.744,-1.251 -6.111,-2.997 -9,-5.679 -0.387,-0.369 -0.387,-0.369 -2.385,-2.214 -2.25,-2.142 -4.473,-4.257 -6.615,-6.507 -0.297,-0.306 -0.297,-0.306 -1.809,-1.863 -8.955,-9.48596 -14.607,-20.51096 -19.791,-32.33696 -0.36,-0.81 -0.72,-1.611 -1.098,-2.448 -8.442,-19.737 -9.297,-45.648 -2.502,-65.952 0.189,-0.576 0.378,-1.143 0.576,-1.737 6.363,-18.936 19.422,-35.937 37.449,-45.009 11.817,-5.76 26.334,-7.749 38.07,-0.747 z"
     fill="#1a1b1a"
     id="path8"
     style="display:inline;stroke-width:0.9"
     inkscape:label="tail" />
  <path
     d="m 113.43372,319.20953 c 9.135,0.315 17.595,4.275 25.902,7.776 0.675,0.288 1.35,0.567 2.043,0.864 37.368,15.993 72.558,41.904 102.35701,69.336 1.404,1.26 2.808,2.52 4.212,3.771 17.631,15.903 17.631,15.903 24.255,23.517 2.205,2.493 4.473,4.923 6.768,7.344 4.896,5.193 9.63,10.44 14.085,16.02 1.8,2.223 3.645,4.401 5.508,6.57 5.562,6.462 10.719,13.185 15.759,20.061 0.954,1.296 1.899,2.583 2.853,3.861 10.62,14.319 19.962,29.16 28.593,44.748 0.306,0.54 0.612,1.089 0.918,1.647 3.186,5.742 6.255,11.529 9.135,17.424 0.45,0.918 0.9,1.845 1.359,2.79 1.422,4.248 0.108,6.858 -1.755,10.728 -0.738,1.458 -1.485,2.916 -2.232,4.365 -0.198,0.396 -0.198,0.396 -1.206,2.385 -1.701,3.357 -3.411,6.696 -5.121,10.044 -6.066,11.889 -11.637,23.886 -16.731,36.225 -22.788,0.576 -44.595,-0.72 -66.6,-7.2 -0.324,-0.09 -0.324,-0.09 -1.944,-0.549 -17.226,-5.004 -35.14501,-13.311 -44.29801,-29.538 -0.873,-3.609 -1.467,-6.759 -0.558,-10.413 4.968,-6.732 13.70701,-9.909 21.60001,-11.7 3.087,-0.108 3.087,-0.108 5.4,0 0,-0.594 0,-1.188 0,-1.8 -0.549,-0.036 -1.089,-0.072 -1.656,-0.108 -5.67,-0.468 -10.89,-1.539 -16.34401,-3.15 -0.819,-0.243 -1.638,-0.477 -2.475,-0.729 -20.628,-6.174 -40.626,-15.039 -56.925,-29.313 -0.639,-0.549 -1.287,-1.107 -1.944,-1.674 -9.126,-8.46 -16.623,-20.7 -17.469,-33.309 0.153,-2.781 0.729,-4.554 2.367,-6.804 6.057,-5.283 13.41,-4.329 21.033,-4.221 1.089,0.01 2.178,0.018 3.303,0.018 2.664,0.027 5.337,0.054 8.01,0.09 -0.72,-0.531 -1.44,-1.071 -2.187,-1.62 -6.264,-4.716 -12.168,-9.657 -17.892,-15.021 -1.944,-1.809 -3.924,-3.537 -5.967,-5.238 -26.847,-23.454 -50.049,-61.137 -54.054,-96.921 -0.171,-3.6 -0.207,-7.191 -0.225,-10.8 -0.018,-0.945 -0.036,-1.899 -0.063,-2.871 -0.027,-5.463 0.297,-9.432 2.988,-14.229 2.718,-2.718 5.463,-2.34 9.198,-2.376 z"
     fill="#1b1b1a"
     id="path4"
     inkscape:label="left wing"
     style="stroke-width:0.9" />
  <path
     d="m 896.81782,313.98674 c 5.103,5.094 4.77,10.386 4.788,17.199 -0.441,27.666 -11.232,54.972 -27.288,77.301 -0.423,0.585 -0.837,1.17 -1.269,1.773 -5.481,7.605 -11.223,14.778 -17.631,21.627 -0.738,0.837 -1.485,1.665 -2.25,2.52 -4.39206,4.95 -8.86506,9.459 -13.95006,13.68 -0.945,0.81 -1.881,1.62 -2.826,2.43 -1.026,0.873 -2.052,1.755 -3.078,2.628 -0.243,0.207 -0.243,0.207 -1.449,1.251 -3.42,2.898 -6.966,5.526 -10.647,8.091 0.675,-0.01 1.35,-0.018 2.052,-0.027 3.078,-0.036 6.165,-0.063 9.252,-0.081 1.062,-0.018 2.133,-0.036 3.222,-0.054 12.195,-0.063 12.195,-0.063 17.82006,3.762 2.691,3.915 2.484,7.083 1.854,11.7 -0.63,2.835 -1.566,5.427 -2.7,8.1 -0.144,0.36 -0.144,0.36 -0.9,2.16 -2.91606,6.399 -7.05606,11.502 -11.70006,16.74 -0.486,0.567 -0.981,1.125 -1.476,1.71 -12.366,13.329 -30.24,21.303 -47.12398,27.09 -0.756,0.261 -1.512,0.531 -2.286,0.801 -1.935,0.657 -3.87,1.287 -5.814,1.899 -0.9,0.288 -1.809,0.567 -2.736,0.864 -6.255,1.953 -12.537,3.762 -18.864,5.436 0.585,0.135 1.179,0.261 1.782,0.405 7.965,1.953 18.72,4.986 23.418,12.195 0.855,4.158 0.333,7.299 -1.296,11.196 -0.729,1.089 -1.503,2.16 -2.304,3.204 -0.261,0.351 -0.261,0.351 -1.602,2.106 -5.454,6.597 -11.763,10.746 -19.098,14.994 -0.306,0.189 -0.306,0.189 -1.863,1.125 -5.094,2.988 -10.197,4.914 -15.858,6.579 -0.891,0.27 -1.791,0.54 -2.709,0.81 -9.279,2.682 -18.63,4.446 -28.17,5.886 -0.648,0.108 -1.296,0.207 -1.953,0.315 -12.483,2.025 -25.047,1.665 -37.647,1.485 -0.369,-0.792 -0.729,-1.584 -1.107,-2.403 -3.861,-8.316 -7.803,-16.587 -11.808,-24.831 -0.981,-2.016 -1.953,-4.023 -2.925,-6.039 -0.639,-1.332 -1.287,-2.664 -1.935,-3.996 -0.153,-0.324 -0.153,-0.324 -0.945,-1.962 -1.584,-3.24 -3.222,-6.426 -4.995,-9.567 -0.342,-0.612 -0.684,-1.215 -1.026,-1.836 -0.648,-1.143 -1.305,-2.268 -1.971,-3.393 -1.503,-2.664 -2.097,-4.266 -1.908,-7.362 0.918,-3.222 2.196,-6.192 3.645,-9.207 0.315,-0.648 0.621,-1.305 0.945,-1.98 15.336,-31.482 35.847,-59.922 58.23,-86.724 0.378,-0.45 0.756,-0.909 1.143,-1.368 5.589,-6.732 11.349,-13.275 17.307,-19.683 1.431,-1.539 2.853,-3.096 4.266,-4.653 7.137,-7.794 14.616,-15.111 22.41,-22.257 1.548,-1.422 3.096,-2.862 4.635,-4.302 28.206,-26.262 61.37098,-49.05 96.12904,-65.709 1.701,-0.819 3.384,-1.665 5.067,-2.511 10.602,-5.247 25.11,-12.15 37.143,-9.117 z"
     fill="#1a1b1a"
     id="path5"
     inkscape:label="right wing"
     style="stroke-width:0.9" />
  <path
     d="m 391.67217,509.88319 c 6.633,2.079 12.924,4.716 19.296,7.479 16.056,6.867 32.184,11.682 49.068,16.101 3.51,0.927 7.002,1.899 10.503,2.871 2.799,0.72 5.553,1.125 8.433,1.449 0.027,0.819 0.045,1.629 0.072,2.475 0.414,8.937 1.206,15.534 7.974,21.771 5.652,4.752 10.944,4.977 18.153,4.914 5.058,-0.522 9.045,-2.322 13.401,-4.86 0.567,1.044 1.134,2.088 1.719,3.168 4.482,8.199 9.054,16.209 14.481,23.832 0.441,0.63 0.891,1.251 1.35,1.899 10.773,15.102 22.752,28.8 35.55,42.201 0.81,0.846 1.611,1.692 2.448,2.565 4.446,4.554 9.117,8.649 14.085,12.618 2.097,1.701 4.095,3.465 6.075,5.292 6.966,6.273 14.598,12.123 22.392,17.325 0.702,2.124 1.242,4.131 1.719,6.309 0.315,1.314 0.621,2.628 0.927,3.951 0.162,0.684 0.315,1.368 0.477,2.07 0.765,3.33 1.593,6.642 2.412,9.963 0.162,0.657 0.324,1.323 0.486,1.998 6.336,25.794 6.336,25.794 10.296,37.31402 0.945,2.772 1.872,5.544 2.799,8.325 12.447,36.98098 27.045,72.10798 53.901,100.96208 1.683,1.908 1.683,1.908 1.683,2.808 -0.576,0.045 -1.161,0.099 -1.755,0.144 -19.575,1.773 -19.575,1.773 -25.884,7.2 -11.088,8.901 -26.874,10.224 -40.545,10.107 -1.953,-0.008 -3.915,0 -5.868,0.018 -10.548,0.018 -21.582,-0.225 -30.348,-6.669 1.341,-9.846 4.392,-19.2961 7.2,-28.8001 0.594,0 1.188,0 1.8,0 -0.036,-1.08 -0.072,-2.151 -0.108,-3.258 -0.126,-3.474 0.81,-6.057 1.908,-9.342 0.801,-3.249 1.494,-6.516 2.196,-9.792 0.198,-0.918 0.396,-1.836 0.594,-2.781 1.602,-7.488 3.087,-14.985 4.41,-22.527 0.081,-0.45 0.081,-0.45 0.495,-2.754 2.403,-14.202 3.51,-28.746 3.105,-43.14598 -0.135,0.81 -0.261,1.62 -0.405,2.457 -1.476,8.81098 -3.24,17.54998 -5.103,26.28898 -0.243,1.125 -0.486,2.25 -0.729,3.411 -0.225,1.053 -0.459,2.106 -0.693,3.195 -0.198,0.945 -0.405,1.899 -0.612,2.871 -0.558,2.277 -0.558,2.277 -1.458,4.077 -0.162,1.287 -0.288,2.583 -0.396,3.879 -0.324,3.249 -1.053,5.706 -2.304,8.721 -0.288,1.35 -0.549,2.7 -0.792,4.059 -0.945,4.851 -2.25,9.54 -3.654,14.283 -1.458,5.004 -2.907,9.99 -4.104,15.066 -10.179,41.5261 -10.179,41.5261 -25.758,52.0921 -9.009,5.445 -21.834,4.878 -31.842,3.015 -8.235,-2.727 -14.517,-7.677 -18.558,-15.336 -4.761,-12.555 -1.125,-29.2141 0.054,-42.2371 0.162,-1.881 0.333,-3.762 0.495,-5.634 0.243,-2.718 0.477,-5.427 0.72,-8.136 0.558,-6.327 1.08,-12.645 1.539,-18.972 -4.203,19.053 -4.203,19.053 -5.922,27.909 -1.215,6.237 -2.484,12.447 -4.032,18.612 -0.27,1.08 -0.54,2.16 -0.819,3.267 -0.306,0.801 -0.612,1.593 -0.927,2.412 -0.891,0.297 -1.782,0.5941 -2.7,0.9001 -4.032,-11.8081 -6.705,-23.8051 -9.279,-36.0001 -0.414,-1.926 -0.828,-3.861 -1.242,-5.787 -0.999,-4.671 -1.989,-9.342 -2.979,-14.013 0.387,4.914 0.783,9.828 1.179,14.742 0.036,0.36 0.036,0.36 0.18,2.214 0.855,10.413 1.845,20.781 3.222,31.14 1.629,12.8521 1.728,24.4261 -5.481,35.6041 -5.517,6.183 -11.889,9.369 -20.16,10.089 -13.455,0.54 -22.401,-0.081 -32.94,-9.189 -7.146,-8.829 -10.62,-18.882 -13.5,-29.7001 -0.477,-1.629 -0.963,-3.267 -1.458,-4.896 -6.633,-21.807 -12.222,-44.028 -16.992,-66.312 -0.144,-0.675 -0.288,-1.341 -0.432,-2.034 -1.953,-9.153 -3.726,-18.342 -5.418,-27.55798 -0.9,35.06398 7.362,73.07098 18.738,106.13708 1.359,4.014 2.466,7.461 1.962,11.763 -4.59,4.959 -11.619,5.868 -18,6.3 -4.122,0.126 -8.244,0.126 -12.375,0.108 -1.071,0.01 -2.133,0.01 -3.231,0.018 -20.025,-0.027 -20.025,-0.027 -29.394,-3.33 -0.675,-0.234 -1.359,-0.468 -2.052,-0.702 -6.435,-2.313 -13.752,-5.598 -18.648,-10.494 -1.404,-0.27 -2.808,-0.486 -4.221,-0.675 -0.855,-0.126 -1.701,-0.243 -2.574,-0.36 -0.45,-0.063 -0.45,-0.063 -2.709,-0.369 -0.9,-0.126 -1.8,-0.252 -2.718,-0.378 -2.232,-0.315 -4.455,-0.612 -6.678,-0.918 2.907,-3.438 5.859,-6.7861 9,-10.0081 18.648,-20.835 30.204,-47.709 39.6,-73.692 0.108,-0.306 0.108,-0.306 0.666,-1.836 6.552,-17.991 12.06,-36.027 16.596,-54.621 1.161,-4.644 2.484,-9.243 3.816,-13.833 1.035,-3.627 1.773,-7.218 2.367,-10.944 1.341,-8.208 1.341,-8.208 4.284,-10.791 1.251,-0.846 2.502,-1.665 3.771,-2.475 1.998,-1.539 3.987,-3.096 5.958,-4.671 0.549,-0.423 1.098,-0.855 1.656,-1.287 16.299,-12.771 32.121,-26.784 45.486,-42.642 0.36,-0.414 0.36,-0.414 2.205,-2.538 9.279,-10.728 17.604,-21.951 25.245,-33.912 0.531,-0.828 1.062,-1.656 1.602,-2.511 7.848,-12.465 7.848,-12.465 7.848,-16.731 -0.9,-1.908 -0.9,-1.908 -2.754,-3.087 -0.576,-0.207 -1.152,-0.414 -1.746,-0.621 -0.126,0.324 -0.126,0.324 -0.738,1.98 -6.201,14.706 -18.342,28.323 -28.485,40.464 -1.278,1.539 -2.547,3.078 -3.807,4.617 -10.134,12.258 -21.078,24.336 -33.138,34.722 -1.764,1.512 -3.51,3.033 -5.247,4.572 -16.902,14.823 -16.902,14.823 -25.785,20.745 -0.756,2.034 -0.756,2.034 -1.35,4.554 -0.108,0.459 -0.108,0.459 -0.675,2.799 -0.108,0.486 -0.108,0.486 -0.675,2.943 -0.45,1.89 -0.9,3.78 -1.35,5.679 -0.225,0.936 -0.441,1.881 -0.675,2.853 -0.837,3.42 -1.764,6.813 -2.709,10.206 -0.684,2.529 -1.314,5.067 -1.926,7.605 -7.425,30.33002 -17.217,61.92 -32.049,89.478 -0.972,1.836 -1.908,3.681 -2.853,5.535 -5.949,11.673 -12.996,22.095 -21.438,32.148 -0.603,0.738 -1.215,1.476 -1.836,2.241 -11.574,13.5541 -26.811,22.3111 -44.064,26.5591 -1.008,0.27 -2.007,0.54 -3.042,0.81 -30.024,6.912 -68.30101,1.062 -94.79701,-14.877 -4.518,-3.159 -4.518,-3.159 -5.382,-5.8951 -0.045,-0.27 -0.045,-0.27 -0.279,-1.638 3.789,-1.98 7.56,-3.528 11.592,-4.95 23.27399,-8.559 44.42399,-20.088 63.10801,-36.45 0.486,-0.423 0.981,-0.846 1.485,-1.287 10.98,-9.558 20.574,-20.241 29.115,-32.013 0.378,-0.513 0.756,-1.035 1.143,-1.566 22.626,-31.149 36.756,-66.636 50.436,-102.303 6.705,-17.469 13.572,-34.794 21.321,-51.831 0.432,-0.945 0.855,-1.89 1.296,-2.862 11.871,-25.947 11.871,-25.947 19.998,-36.963 3.474,-4.752 4.545,-7.668 3.96,-13.5 -0.63,-13.995 7.182,-27.261 16.326,-37.539 1.701,-1.845 3.447,-3.654 5.22,-5.436 z"
     fill="#1b1b1b"
     id="path3"
     inkscape:label="body"
     style="stroke-width:0.9" />
  <path
     d="m 613.16275,510.98055 c 7.425,3.807 12.114,13.689 16.02,20.628 0.531,0.909 1.071,1.818 1.62,2.754 3.186,5.976 3.933,10.449 3.834,17.046 0.018,9.369 4.005,15.075 9.117,22.653 3.87,5.769 7.083,11.844 10.233,18.018 0.288,0.558 0.567,1.116 0.864,1.692 11.061,21.717 20.331,43.965 29.277,66.609 14.31,36.225 29.043,72.99 53.955,103.42796 0.189,0.234 0.189,0.234 1.143,1.413 8.694,10.629 17.82,21.465 28.557,30.087 0.981,0.819 1.971,1.638 2.961,2.457 19.809,16.29 43.04698,30.564 67.76108,37.926 2.178,1.017 2.178,1.017 2.952,2.934 0.036,0.558 0.081,1.116 0.126,1.683 -14.13,11.88 -35.1451,17.325 -53.10008,19.8 -0.585,0.09 -1.17,0.18 -1.773,0.279 -28.476,4.383 -58.347,1.341 -82.548,-15.3 -14.841,-11.439 -25.398,-26.379 -34.479,-42.579 -0.36,-0.63 -0.711,-1.26 -1.08,-1.908 -6.633,-11.862 -11.97,-24.147 -16.92,-36.792 -0.198,-0.504 -0.198,-0.504 -1.206,-3.042 -6.948,-17.83796 -12.393,-35.96396 -17.541,-54.38696 -1.152,-4.113 -2.34,-8.226 -3.528,-12.33 -1.791,-6.219 -3.528,-12.429 -4.959,-18.738 -0.225,-0.792 -0.441,-1.584 -0.666,-2.403 -0.162,-0.567 -0.315,-1.134 -0.477,-1.719 -1.521,-4.788 -3.789,-7.326 -7.911,-10.206 -1.134,-0.846 -2.277,-1.692 -3.411,-2.547 -0.288,-0.216 -0.288,-0.216 -1.764,-1.305 -2.808,-2.133 -5.481,-4.419 -8.154,-6.723 -0.459,-0.396 -0.918,-0.783 -1.395,-1.188 -8.712,-7.515 -17.055,-15.408 -25.191,-23.544 -1.377,-1.368 -2.754,-2.736 -4.14,-4.104 -5.724,-5.697 -10.935,-11.628 -15.957,-17.964 -0.783,-0.927 -1.557,-1.845 -2.349,-2.754 -8.838,-10.314 -16.623,-21.429 -24.039,-32.796 -0.423,-0.648 -0.846,-1.305 -1.287,-1.971 -2.925,-4.554 -2.90785,-4.51113 -3.88524,-5.26725 l -4.36327,3.55686 -1.01958,-2.15982 c 0.315,-0.486 1.57309,-1.88079 1.89709,-2.38479 0.405,-0.648 0.819,-1.287 1.233,-1.953 0.414,-0.639 0.819,-1.278 1.242,-1.935 2.088,-3.591 2.214,-6.921 2.475,-11.007 0.072,-1.143 0.153,-2.286 0.225,-3.465 0.027,-0.441 0.027,-0.441 0.171,-2.664 0.837,-0.198 1.674,-0.396 2.547,-0.603 26.793,-6.354 53.478,-13.572 78.453,-25.452 2.223,-1.044 3.996,-1.863 6.48,-1.773 z"
     fill="#1b1b1b"
     id="path6"
     inkscape:label="mant"
     style="stroke-width:0.9"
     sodipodi:nodetypes="cccccccccccccccccccccccccccccccccccccccccccccscccc" />
  <path
     style="fill:#1a1b1a;fill-opacity:1;stroke-width:0.9"
     d="m 313.91495,159.73092 c 7.04292,-2.5501 16.93552,1.6895 20.79652,3.6065 0.999,0.477 1.998,0.963 3.033,1.458 15.723,7.85702 29.52,18.92702 42.462,30.72602 1.449,1.323 2.916,2.637 4.392,3.942 8.514,7.533 16.569,15.489 23.913,24.17401 0.81,0.927 1.629,1.863 2.439,2.79 4.761,5.49 9.423,11.034 13.932,16.722 0.423,0.531 0.846,1.062 1.278,1.602 1.773,2.259 3.042,4.041 3.951,6.786 1.035,-0.297 2.07,-0.594 3.132,-0.891 7.506,-2.115 14.985,-4.14 22.608,-5.796 2.16,-0.513 2.16,-0.513 3.96,-1.413 13.086,-2.565 26.343,-3.141 39.636,-3.06 2.727,0.018 5.454,0 8.181,-0.018 17.316,-0.018 33.795,1.98 50.364,7.047 2.457,0.756 4.932,1.458 7.407,2.16 0.72,0.207 1.44,0.414 2.178,0.63 2.43,0.522 4.068,0.864 6.534,0.441 1.8,-1.719 3.222,-3.294 4.725,-5.238 0.441,-0.531 0.873,-1.071 1.323,-1.62 1.296,-1.602 2.574,-3.222 3.852,-4.842 13.293,-16.767 28.494,-33.56101 45.369,-46.77301 2.601,-2.043 5.10302,-4.185 7.62302,-6.327 13.185,-10.98 32.85,-26.70302 50.814,-26.39702 2.394,0.297 2.394,0.297 5.04,1.926 19.044,29.43002 8.046,84.06003 1.179,116.27103 -2.988,13.275 -7.128,26.559 -12.213,39.186 -1.089,3.969 -0.01,7.38 1.188,11.214 0.108,0.36 0.108,0.36 0.639,2.214 0.873,2.961 1.782,5.913 2.745,8.856 6.912,22.698 8.595,53.496 1.116,76.23 -0.18,0.576 -0.369,1.152 -0.567,1.746 -7.389,21.789 -21.15,41.382 -39.033,55.854 -13.7439,11.45325 -15.32514,16.9636 -43.29538,31.03321 -27.92175,13.07568 -62.24427,26.81851 -101.97964,25.06679 -44.19046,1.20753 -106.15151,-30.61105 -110.226,-32.7 -14.85,-7.668 -28.458,-17.298 -40.599,-28.8 -23.23227,-20.41552 -35.06475,-48.40945 -37.107,-78.831 -0.315,-20.493 -0.171,-45.504 9.207,-64.269 0.531,-4.653 -0.081,-7.776 -1.854,-12.096 -7.398,-18.261 -11.097,-37.854 -14.346,-57.204 -0.162,-0.963 -0.324,-1.917 -0.486,-2.898 -2.169,-13.347 -2.484,-26.649 -2.547,-40.14001 -0.01,-0.801 -0.018,-1.611 -0.027,-2.439 -0.243,-36.657 -1.60106,-37.64468 2.91956,-45.28852 3.033,-2.412 1.07218,-2.83876 6.34392,-4.641 z"
     id="path2"
     inkscape:label="face"
     sodipodi:nodetypes="ccccccccccccccccccccccccccccccccccccccccccccccc" />
  <path
     d="m 502.08025,118.15336 37.1,76.675 48.14286,-39.36396 c 0,0 -4.71693,38.21889 -21.14286,85.26397 0,0 -28.19854,-9.48162 -63.22629,-9.44403 -36.58484,-0.37025 -68.93945,10.49168 -68.93945,10.49168 l -21.95108,-88.12941 51.51682,42.08217 z"
     fill="#1b1b1b"
     id="path7"
     inkscape:label="crown"
     style="display:inline;stroke-width:0.9"
     sodipodi:nodetypes="ccccccccc" />
  <path
     style="fill:#1a1b1a;fill-opacity:1"
     id="path117"
     sodipodi:type="arc"
     sodipodi:cx="501.73871"
     sodipodi:cy="119.60155"
     sodipodi:rx="15"
     sodipodi:ry="15"
     sodipodi:start="0"
     sodipodi:end="6.2830165"
     sodipodi:open="true"
     sodipodi:arc-type="arc"
     d="m 516.73871,119.60155 a 15,15 0 0 1 -14.99937,15 15,15 0 0 1 -15.00063,-14.99874 15,15 0 0 1 14.9981,-15.00126 15,15 0 0 1 15.0019,14.99747"
     inkscape:label="crown-tip-1" />
  <path
     style="fill:#1a1b1a;fill-opacity:1"
     id="path117-9"
     sodipodi:type="arc"
     sodipodi:cx="585.25"
     sodipodi:cy="158.5"
     sodipodi:rx="15"
     sodipodi:ry="15"
     sodipodi:start="0"
     sodipodi:end="6.2830165"
     sodipodi:open="true"
     sodipodi:arc-type="arc"
     d="m 600.25,158.5 a 15,15 0 0 1 -14.99937,15 A 15,15 0 0 1 570.25,158.50127 15,15 0 0 1 585.2481,143.5 15,15 0 0 1 600.25,158.49747"
     inkscape:label="crown-tip-2" />
  <path
     style="fill:#1a1b1a;fill-opacity:1"
     id="path117-9-8"
     sodipodi:type="arc"
     sodipodi:cx="413.5"
     sodipodi:cy="156.57843"
     sodipodi:rx="15"
     sodipodi:ry="15"
     sodipodi:start="0"
     sodipodi:end="6.2830165"
     sodipodi:open="true"
     sodipodi:arc-type="arc"
     d="m 428.5,156.57843 a 15,15 0 0 1 -14.99937,15 A 15,15 0 0 1 398.5,156.5797 15,15 0 0 1 413.4981,141.57843 15,15 0 0 1 428.5,156.5759"
     inkscape:label="crown-tip3" />
</svg>
